<?xml version="1.0" encoding="UTF-8" standalone="no"?><!DOCTYPE svg PUBLIC "-//W3C//DTD SVG 1.1//EN" "http://www.w3.org/Graphics/SVG/1.1/DTD/svg11.dtd"><svg width="1008px" height="284px" version="1.1" xmlns="http://www.w3.org/2000/svg" xmlns:xlink="http://www.w3.org/1999/xlink" xml:space="preserve" xmlns:serif="http://www.serif.com/" style="fill-rule:evenodd;clip-rule:evenodd;stroke-linecap:round;stroke-linejoin:round;stroke-miterlimit:10;"><g id="Layer1"><path d="M33.563,135.96l0.643,-0.035l1.931,0.431l0.643,0.242l0.644,-0.279l0.644,-0.15l0.643,-0.695l0.644,-1.021l0.643,-2.158l0.644,-1.384l0.643,-3.188l0.644,-3.9l0.643,-5.246l0.644,-3.336l1.93,-14.83l1.931,-8.205l0.643,-1.199l0.644,-0.879l0.643,0.059l0.644,-0.215l0.644,0.743l0.643,0.097l0.644,0.908l0.643,0.58l0.644,1.102l0.643,0.301l0.644,0.959l0.643,0.695l0.644,1.392l0.643,0.646l1.931,4.512l0.643,0.866l0.644,1.38l0.643,1.086l0.644,0.848l0.644,0.268l0.643,0.451l0.644,0.24l0.643,0.48l0.644,0.2l1.287,1.557l0.643,1.172l0.644,0.563l1.93,3.655l0.644,0.712l1.287,2.261l0.643,1.293l0.644,0.643l1.931,2.971l0.643,0.648l1.931,3.833l1.287,1.664l0.643,0.834l0.644,0.576l0.643,0.316l1.287,0.378l1.287,0.354l2.575,1.515l0.643,0.559l1.287,1.348l1.287,0.666l2.574,1.804l0.644,0.619l1.287,0.567l0.643,-0.011l0.644,0.14l0.644,-0.259l0.643,-0.038l0.644,-0.417l0.643,-0.217l0.644,-1.002l0.643,-0.641l0.644,-2.095l0.643,-2.84l0.644,-4.485l0.643,-2.849l0.644,-4.704l1.287,-10.91l1.287,-6.726l0.643,-3.824l0.644,-2.542l0.644,-1.62l1.287,-2.235l0.643,0.184l0.644,-0.113l0.643,0.718l0.644,0.473l0.643,0.916l0.644,0.165l1.287,1.153l0.643,1.024l0.644,0.374l1.287,2.449l0.643,1.705l0.644,0.743l0.644,1.228l1.287,1.63l0.643,0.273l1.931,1.63l0.643,0.226l1.287,1.355l0.644,1.005l0.643,0.39l1.287,1.647l0.644,1.327l0.643,0.694l1.288,2.363l0.643,1.531l0.644,0.872l1.93,4.569l0.644,0.883l1.93,3.593l1.287,1.19l1.287,1.299l3.862,2.318l2.574,2.435l1.287,1.427l1.287,0.939l1.287,1.214l0.643,0.34l0.644,0.101l0.643,0.294l1.287,0.041l0.644,-0.151l4.505,1.434l0.643,-0.123l0.644,0.067l0.643,-0.526l0.644,-0.256l0.643,-0.9l0.644,-1.469l0.643,-2.737l0.644,-1.701l1.287,-8.432l0.644,-5.752l0.643,-3.559l1.931,-14.517l1.287,-4.437l0.643,-1.951l1.287,-1.139l0.644,0.213l0.643,-0.146l0.644,0.704l0.643,0.128l0.644,0.883l0.643,0.517l0.644,1.027l0.644,0.342l0.643,0.691l0.644,0.491l0.643,0.787l0.644,0.27l0.643,0.899l0.644,0.701l0.643,0.996l0.644,0.399l1.287,1.32l0.643,0.527l0.644,0.059l0.643,0.412l0.644,0.093l0.643,0.409l0.644,0.097l1.287,1.432l0.644,1.357l0.643,0.688l1.287,2.959l0.644,1.786l0.643,0.856l1.931,4.107l0.643,0.692l3.862,6.026l0.643,1.241l0.644,0.663l1.93,2.371l1.287,0.998l1.287,1.084l0.644,0.318l1.287,0.821l0.643,0.324l1.931,0.647l0.644,0.414l0.643,0.269l1.931,1.668l1.93,0.807l1.931,0.636l0.643,0.38l0.644,0.582l1.287,0.946l0.643,0.518l1.288,0.393l0.643,0.141l0.644,0.268l1.93,0.231l0.644,0.278l1.287,0.049l0.643,-0.416l0.644,-0.717l0.643,-1.824l0.644,-1.207l0.643,-3.004l0.644,-3.808l0.643,-4.927l0.644,-3.014l1.931,-13.072l1.93,-6.893l0.644,-1.048l0.643,-0.832l0.644,-0.156l0.643,-0.356l0.644,0.922l0.643,0.346l1.287,2.163l0.644,1.507l0.643,0.601l1.287,2.75l0.644,1.872l0.644,0.91l1.93,5.01l0.644,0.765l1.287,1.797l0.643,0.928l0.644,0.444l0.643,0.596l1.287,1.629l0.644,0.352l1.287,1.252l0.643,1.001l0.644,0.532l1.287,2.629l0.644,1.889l0.643,1.036l1.931,4.865l0.643,0.95l1.931,4.412l1.287,1.976l0.643,1.16l0.644,0.751l1.931,1.137l0.643,0.504l0.644,0.341l3.217,2.89l1.287,1.491l1.287,1.101l1.287,1.627l1.287,0.978l0.644,0.795l0.644,0.496l0.643,0.262l2.574,0.472l0.644,-0.065l1.93,0.318l2.574,0.12l0.644,-0.075l0.643,0.167l1.288,0.02l1.287,-0.644l0.643,-0.738l0.644,-0.286l0.643,-0.669l0.644,-0.263l0.643,-0.426l0.644,-0.059l1.287,-0.531l0.643,-1.487l0.644,-0.985l0.643,-3.012l0.644,-3.571l0.643,-5.331l0.644,-3.358l1.931,-16.563l1.93,-10.055l0.644,-1.841l0.643,-1.15l1.287,-1.108l0.644,0.473l0.643,0.005l0.644,0.684l0.643,0.496l0.644,0.958l0.643,0.27l0.644,0.715l0.644,0.383l0.643,0.813l0.644,0.37l1.287,1.768l0.643,1.115l0.644,0.482l0.643,0.813l0.644,0.455l0.643,0.317l0.644,0.066l0.643,0.251l0.644,-0.026l1.287,0.156l1.931,0.976l0.643,0.163l0.644,0.417l0.643,0.716l0.644,0.989l0.643,0.598l1.287,2.432l1.931,3.513l0.643,1.081l1.287,2.554l1.287,1.693l0.644,1.225l1.287,1.558l0.644,0.441l0.643,0.863l2.574,0.869l0.644,0.019l0.643,0.258l0.644,0.061l0.643,0.321l1.287,0.226l0.644,-0.174l0.643,-0.028l0.644,-0.177l0.643,-0.018l0.644,0.123l2.574,1.273l0.644,0.458l1.93,0.473l1.931,1.176l0.643,0.073l0.644,0.242l0.643,0.004l1.931,0.612l2.574,0.887l0.644,-0.066l0.643,0.103l0.644,-0.27l1.93,-0.451l0.644,-0.363l0.643,-0.558l0.644,-0.785l0.643,-1.245l1.287,-5.161l0.644,-4.459l0.644,-3.323l0.643,-4.021l0.644,-6.405l0.643,-3.346l1.287,-9.721l1.287,-6.531l0.644,-1.369l1.287,-1.565l0.643,-0.163l1.931,0.781l1.931,1.367l0.643,0.988l0.644,0.414l1.287,1.965l0.643,1.296l0.644,0.634l1.93,3.417l0.644,0.696l2.574,3.495l0.643,0.618l0.644,0.329l0.644,0.705l0.643,0.354l0.644,0.686l1.287,1.892l0.643,1.084l1.287,1.505l0.644,1.314l0.643,0.628l0.644,0.957l1.287,2.506l0.643,1.471l1.287,2.209l0.644,1.784l0.644,0.737l1.93,3.325l0.644,0.679l0.643,0.517l0.644,0.301l0.643,0.681l0.644,0.204l0.643,0.343l2.574,0.793l0.644,0.193l1.931,1.075l0.643,0.307l0.644,0.662l1.287,0.637l1.287,0.208l0.643,-0.274l0.644,0.078l0.643,-0.236l0.644,0.16l0.643,-0.004l0.644,0.206l0.643,-0.072l0.644,0.398l1.931,0.221l0.643,0.402l0.644,0.076l0.643,0.524l0.644,0.179l0.643,0.54l0.644,0.116l0.643,0.297l0.644,0.086l0.643,0.29l0.644,-0.103l0.643,0.39l0.644,-0.258l0.643,0.108l0.644,-0.388l0.643,0.09l0.644,-0.514l0.643,-0.313l0.644,-1.891l0.644,-1.181l0.643,-2.808l0.644,-3.765l0.643,-5.445l0.644,-3.667l0.643,-4.549l1.287,-11.041l0.644,-3.315l0.643,-2.701l0.644,-3.343l0.643,-1.797l0.644,-1.413l0.643,-0.314l0.644,-0.572l0.643,0.461l0.644,0.04l0.644,0.703l2.574,4.022l1.93,2.849l0.644,1.505l0.643,0.92l0.644,1.374l0.643,0.522l0.644,1.103l0.643,0.883l0.644,1.135l2.574,2.586l0.644,0.274l1.287,0.98l0.643,0.925l0.644,0.595l0.643,1.155l1.931,3.962l2.574,3.97l0.643,0.899l2.575,5.112l1.287,3.724l3.217,5.921l0.644,0.388l1.93,1.84l0.644,0.459l0.643,0.867l1.288,1.132l2.574,1.63l0.643,0.194l0.644,0.558l1.287,0.731l1.287,0.138l0.643,-0.413l0.644,0.022l0.643,-0.164l0.644,0.355l0.643,0.113l1.288,1.255l0.643,1l0.644,0.395l0.643,0.63l1.287,0.547l0.644,-0.021l0.643,0.18l0.644,-0.155l1.287,0.237l1.287,0.628l0.643,0.632l1.287,0.177l0.644,-0.624l0.644,-1.005l0.643,-2.348l0.644,-1.921l0.643,-2.871l0.644,-4.872l0.643,-2.842l2.574,-18.493l1.287,-4.301l0.644,-2.218l1.287,-1.635l0.643,-0.438l1.288,0.593l1.287,1.76l0.643,1.355l0.644,0.859l1.93,3.72l0.644,1.586l1.287,2.278l0.643,1.747l0.644,0.781l1.287,2.385l0.643,0.747l1.288,0.967l0.643,0.176l0.644,0.405l0.643,0.137l2.574,1.323l1.287,0.925l0.644,1.03l0.643,0.553l2.574,5.286l0.644,0.845l0.643,0.636l0.644,1.188l0.644,0.588l4.504,7.39l1.287,1.361l0.644,0.273l0.643,0.681l1.287,0.63l0.644,0.062l1.931,0.952l0.643,0.111l0.644,0.336l0.643,-0.064l0.644,0.236l0.643,-0.075l0.644,0.258l0.643,-0.006l0.644,0.339l0.643,0.044l0.644,0.616l0.643,0.066l0.644,0.568l0.643,0.14l0.644,0.515l0.643,-0.005l0.644,0.492l0.644,0.085l0.643,0.634l0.644,0.003l0.643,0.315l0.644,-0.409l0.643,-0.233l0.644,-1.681l0.643,-0.922l0.644,-2.356l0.643,-2.94l0.644,-4.706l0.643,-3.197l0.644,-4.2l1.287,-10.772l1.931,-10.706l0.643,-2.234l0.644,-1.52l0.643,-0.306l0.644,-0.655l0.643,0.487l0.644,0.245l1.287,1.541l1.287,0.989l3.217,3.827l0.644,0.872l1.287,1.425l0.644,0.783l1.287,0.893l1.287,-0.206l1.93,-1.738l0.644,-0.116l0.643,-0.408l1.931,0.323l0.643,0.229l0.644,0.62l0.644,0.262l1.287,1.645l0.643,1.252l0.644,0.734l1.93,3.289l1.287,1.239l1.931,2.457l0.643,0.692l1.287,2.038l0.644,0.606l1.287,0.759l0.644,0.174l0.643,0.32l0.644,0.063l1.287,0.77l1.287,0.546l0.643,0.426l1.287,0.409l0.644,-0l1.287,0.549l0.643,0.179l0.644,0.035l1.287,0.213l0.644,0.131l0.643,-0.073l1.287,0.337l0.644,0.083l1.93,1.131l1.287,0.326l1.287,-0.303l0.644,-0.58l0.643,-1.105l1.288,-3.41l0.643,-2.699l1.287,-8.847l0.644,-5.862l1.287,-7.822l0.643,-5.485l0.644,-2.37l1.287,-6.322l0.643,-1.869l0.644,-1.19l0.643,-0.419l0.644,-0.141l1.287,0.916l0.643,1.005l1.931,4.425l1.287,2.123l0.644,1.561l0.643,0.622l1.931,3.383l0.643,0.763l1.287,1.855l0.644,0.63l1.93,1.175l0.644,0.026l1.287,0.62l0.644,0.481l0.643,0.763l0.644,0.477l0.643,0.833l1.931,3.437l1.287,1.498l0.643,1.32l0.644,0.784l0.643,1.185l1.287,2.96l0.644,1.408l1.931,2.693l1.287,0.99l2.574,3.249l0.643,0.618l0.644,0.823l2.574,1.126l0.643,0.181l0.644,0.046l1.287,0.448l0.644,0.317l0.643,0.089l0.644,0.317l2.574,0.373l0.643,0.321l0.644,0.489l0.643,0.248l1.287,0.643l1.287,0.35l1.288,0.118l0.643,0.001l0.644,-0.177l0.643,-0.011l0.644,-0.782l0.643,-0.509l0.644,-1.712l0.643,-2.448l0.644,-4.117l0.643,-2.668l0.644,-4.673l1.287,-11.137l0.643,-3.242l1.287,-8.161l1.288,-5.262l0.643,-1.047l0.644,-0.727l0.643,-0.441l0.644,0.382l0.643,0.599l0.644,0.846l1.287,2.724l1.287,1.978l0.643,1.639l0.644,0.696l1.287,2.725l1.287,2.866l2.574,3.532l1.287,1.066l0.644,0.897l0.643,0.378l1.287,1.93l1.931,2.87l0.643,0.877l1.287,2.171l1.288,1.546l1.287,2.333l2.574,3.736l0.643,0.672l0.644,0.376l0.643,1.122l0.644,0.456l1.93,3.733l0.644,0.787l0.643,0.396l0.644,0.17l0.643,0.353l1.931,0.285l1.287,0.949l0.644,0.346l2.574,0.771l0.643,-0.061l0.644,0.372l1.287,0.27l1.93,0.088l0.644,0.18l0.644,-0.11l0.643,0.259l0.644,0.429l0.643,0.57l0.644,0.187l0.643,0.566l0.644,0.326l0.643,0.568l0.644,-0.072l0.643,0.382l0.644,-0.668l0.643,-0.47l0.644,-1.646l0.643,-2.408l0.644,-3.968l1.287,-6.923l0.644,-6.003l0.643,-2.857l1.287,-8.542l0.644,-3.549l1.287,-3.543l0.643,-1.489l0.644,-0.582l0.643,-0.35l0.644,0.245l0.643,0.414l0.644,1.032l1.287,2.495l0.643,1.013l0.644,2.066l0.644,0.911l1.287,2.864l1.93,3.648l0.644,0.824l0.643,1.407l0.644,0.422l0.643,0.888l0.644,0.64l0.643,0.822l1.287,1.167l0.644,0.326l0.643,0.926l0.644,0.291l1.931,2.554l0.643,0.49l1.287,2.49l0.644,1.585l0.643,0.843l1.931,4.244l0.643,1.507l1.287,2.026l0.644,1.647l0.643,0.656l1.288,1.93l1.287,1.694l1.287,1.293l0.643,1.181l0.644,0.422l0.643,0.975l1.287,1.313l1.287,0.161l1.931,-0.483l1.287,0.057l1.931,1.352l0.643,0.336l0.644,0.788l0.643,0.126l0.644,0.65l0.643,0.269l0.644,0.629l0.643,0.389l0.644,0.554l0.643,0.032l0.644,0.386l0.643,-0.404l0.644,0.121l0.643,-0.454l0.644,-0.043l0.644,-1.226l0.643,-0.531l0.644,-1.891l0.643,-2.322l0.644,-4.281l0.643,-2.842l0.644,-4.12l1.287,-10.07l1.93,-9.179l0.644,-1.895l0.643,-1.296l1.287,-0.866l0.644,0.25l0.644,0.509l0.643,1.084l0.644,1.466l0.643,1.067l1.287,3.306l0.644,1.648l1.287,2.287l0.643,1.464l0.644,1.06l0.643,1.359l0.644,0.596l1.93,2.431l2.575,1.326l0.643,0.072l1.287,0.486l0.644,0.632l0.643,0.395l0.644,0.619l0.643,0.933l0.644,1.446l0.643,1.019l0.644,1.32l1.287,3.382l1.93,3.591l0.644,0.377l1.287,1.549l3.861,4.698l0.644,0.465l0.643,0.039l0.644,0.268l0.643,0.017l0.644,0.307l0.643,-0.002l0.644,0.459l2.574,0.204l0.644,-0.22l0.643,0.182l0.644,-0.364l0.643,0.098l0.644,-0.193l0.643,0.062l0.644,-0.137l0.643,-0.01l0.644,-0.649l0.643,-0.194l0.644,-0.337l0.643,0.05l0.644,-0.357l0.643,0.062l0.644,-0.406l0.644,-0.079l0.643,-1.238l0.644,-0.658l0.643,-1.928l0.644,-2.476l0.643,-4.347l0.644,-2.956l0.643,-4.242l1.287,-11.367l1.931,-11.352l0.643,-2.392l0.644,-1.561l0.643,-0.757l0.644,-1.167l0.644,-0.132l0.643,-0.353l0.644,0.381l0.643,0.086l0.644,0.554l0.643,0.155l3.218,3.53l0.643,1.121l0.644,0.626l1.93,2.333l3.218,1.542l0.644,0.136l1.287,0.794l0.643,0.727l1.287,0.891l0.644,0.829l0.643,0.548l0.644,0.697l3.218,5.523l0.643,1.673l0.644,0.818l1.287,2.459l1.287,1.843l1.287,1.133l0.643,0.956l0.644,0.477l1.287,1.849l0.643,0.797l1.287,0.747l0.644,0.398l1.931,0.279l1.287,0.462l1.93,1.085l0.644,0.676l1.287,0.815l0.643,0.565l0.644,0.397l1.287,1.03l0.643,0.354l0.644,0.56l0.644,0.181l0.643,0.436l1.931,0.829l1.93,0.303l1.287,-0.489l0.644,-1.406l0.643,-1.838l1.931,-9.543l0.643,-6.11l0.644,-3.315l2.574,-19.607l1.287,-4.242l0.644,-2.035l0.643,-0.964l0.644,-0.71l0.643,0.088l0.644,-0.028l0.643,0.678l0.644,0.328l1.287,1.6l0.643,1.067l0.644,0.593l0.643,0.872l1.288,2.476l1.287,1.611l1.287,1.804l0.643,0.743l0.644,0.375l0.643,0.849l0.644,0.381l0.643,0.584l1.287,1.538l0.644,0.366l1.287,1.045l1.287,0.552l0.644,0.213l1.287,1.154l0.643,1.219l0.644,0.834l0.643,1.46l1.287,3.969l1.931,3.956l0.643,0.905l1.287,1.231l1.287,2.096l1.931,2.566l1.287,0.69l0.644,0.084l1.93,0.686l0.644,0.02l0.643,0.427l1.931,0.277l2.574,0.653l0.644,0.412l1.93,0.583l0.644,0.4l1.287,0.548l0.643,0.331l1.931,1.942l0.643,0.354l0.644,0.618l0.643,0.095l0.644,0.451l0.643,-0.164l0.644,0.195l0.644,-0.646l0.643,0.004l1.287,-2.429l0.644,-3.316l0.643,-2.248l0.644,-3.658l0.643,-4.857l0.644,-5.723l1.287,-7.86l0.643,-4.996l0.644,-3.642l0.643,-2.549l0.644,-1.519l0.643,-2.095l0.644,-0.422l0.644,-0.572l0.643,0.389l0.644,0.047l0.643,1.07l0.644,0.452l1.287,1.887l0.643,1.623l0.644,0.879l1.287,3.074l0.643,1.765l1.287,2.141l0.644,1.209l0.643,0.852l3.862,2.393l0.643,0.863l0.644,1.184l0.643,0.659l1.287,2.042l0.644,1.113" style="fill:none;fill-rule:nonzero;stroke:#ffa409;stroke-width:1.5px;"/><path d="M33.563,64.201l0.643,-0.168l0.644,-0.984l0.643,-0.145l0.644,-1.013l0.643,0.27l0.644,-0.321l0.644,0.763l0.643,0.377l0.644,1.666l0.643,0.26l0.644,0.817l0.643,0.06l0.644,0.689l0.643,-0.322l0.644,0.256l1.287,0.17l0.643,-0.615l0.644,0.611l0.643,-0.601l0.644,0.131l0.643,-0.386l0.644,0.281l0.643,-0.181l0.644,0.224l0.644,-0.655l0.643,0.629l0.644,-0.616l0.643,0.318l0.644,-0.382l1.287,0.149l0.643,0.317l0.644,-0.28l0.643,0.322l0.644,-0.193l0.643,0.501l0.644,-0.143l0.643,0.096l0.644,-0.489l0.643,0.051l0.644,0.421l0.644,-0.007l0.643,-0.545l0.644,0.38l0.643,-0.167l0.644,0.382l0.643,-0.236l0.644,-0.024l0.643,-1.905l1.287,0.454l0.644,0.426l0.643,-0.822l1.287,1.306l0.644,1.455l0.643,-0.421l0.644,0.263l0.644,-0.716l0.643,0.494l0.644,-0.517l0.643,0.458l0.644,-0.749l0.643,1.708l0.644,6.452l0.643,-3.678l0.644,-31.365l0.643,-18.676l1.287,51.464l0.644,5.877l0.643,-9.628l0.644,-2.525l1.287,-0.06l0.644,-0.197l0.643,0.156l0.644,-0.498l0.643,0.241l0.644,-0.288l0.643,0.081l0.644,-0.375l0.643,0.286l0.644,-0.039l0.643,-0.58l1.287,-0.39l0.644,-1.057l0.643,-0.118l0.644,-1.277l1.287,-1.119l1.287,-0.224l0.644,0.08l0.643,1.108l1.931,2.532l1.287,0.784l0.643,0.267l0.644,-0.363l0.643,0.055l1.287,0.418l0.644,-0.161l0.643,0.072l0.644,-0.473l0.644,0.278l1.287,-0.437l1.93,-0.2l0.644,0.206l0.643,-0.313l0.644,0.078l1.287,0.016l0.643,0.213l0.644,-0.385l1.287,0.426l0.643,0.002l0.644,0.347l0.644,-0.287l0.643,0.131l0.644,-0.031l0.643,0.367l0.644,-0.517l0.643,0.244l1.287,-0.002l0.644,-0.292l0.643,0.357l0.644,-0.122l0.643,0.061l0.644,-0.281l1.287,0.184l0.643,-0.918l0.644,-1.318l0.644,0.647l0.643,0.435l0.644,0.059l0.643,-0.861l0.644,1.151l0.643,0.647l0.644,1.22l0.643,-0.798l0.644,0.376l0.643,-0.52l0.644,0.644l0.643,-1.1l0.644,0.857l0.643,-1.171l0.644,3.892l0.643,5.059l0.644,-8.753l0.643,-35.357l0.644,-5.785l0.644,29.9l0.643,19.171l0.644,2.113l0.643,-9.924l1.287,-0.839l0.644,0.727l0.643,-0.669l0.644,0.257l1.287,-0.134l0.643,-0.526l0.644,0.423l0.643,-0.461l0.644,-0.043l0.643,-0.282l0.644,-0.043l1.287,-0.788l0.644,-0.955l0.643,-0.293l0.644,-1.004l0.643,-0.364l0.644,-1.01l1.287,-0.018l1.287,1.293l1.287,2.184l1.287,1.222l0.643,0.325l0.644,-0.217l0.644,0.528l0.643,-0.023l0.644,-0.266l0.643,0.204l1.931,-0.12l0.643,-0.359l1.287,-0.072l1.287,-0.076l0.644,-0.019l0.643,-0.186l0.644,0.399l0.643,-0.369l1.288,0.359l1.93,0.17l0.644,0.288l1.287,-0.053l0.643,0.119l0.644,-0.093l0.643,0.336l1.287,-0.211l0.644,0.321l0.643,-0.206l0.644,-0.081l0.643,0.274l0.644,0.042l0.644,-0.228l1.287,0.326l1.287,0.059l0.643,-0.191l0.644,0.219l0.643,-0.399l0.644,0.178l1.287,0.099l1.287,-1.392l0.643,-0.292l0.644,0.558l1.287,-0.478l0.644,0.766l0.643,1.172l0.644,0.393l1.287,-0.344l0.643,0.267l0.644,-0.302l0.643,0.284l1.287,-0.627l0.644,0.905l0.643,6.033l0.644,0.698l1.287,-54.251l1.287,48.046l0.644,10.449l1.287,-12.04l0.643,0.108l0.644,-0.196l0.643,0.442l0.644,-0.516l0.643,0.389l0.644,-0.166l1.93,-0.068l0.644,-0.31l0.643,0.212l0.644,-0.463l0.643,0.176l0.644,-0.832l1.287,-0.876l0.644,-0.496l0.643,-0.938l0.644,-0.492l0.643,-0.248l0.644,-0.093l1.287,0.713l1.287,1.934l0.643,1.056l0.644,0.491l0.643,0.169l0.644,0.376l1.287,0.163l1.287,0.132l0.644,-0.12l0.643,0.192l0.644,-0.032l0.643,-0.154l0.644,0.183l0.643,-0.123l0.644,-0.263l0.643,0.147l0.644,0.01l0.643,-0.108l0.644,-0.356l0.643,0.21l0.644,-0.126l0.643,0.342l2.575,0.351l0.643,-0.133l1.287,0.431l0.644,-0.151l0.643,0.391l0.644,-0.434l1.93,0.172l0.644,0.289l0.643,-0.311l0.644,-0.089l0.643,0.341l0.644,-0.107l0.643,0.033l0.644,-0.526l0.644,0.561l0.643,-0.165l0.644,0.264l1.287,-0.382l0.643,0.297l1.931,0.019l0.643,-0.75l0.644,0.784l0.643,-0.357l1.287,-1.652l0.644,0.743l0.643,-0.001l0.644,-0.429l0.644,-0.119l0.643,0.876l1.287,1.08l1.287,-0.238l0.644,-0.317l0.643,0.56l0.644,-0.529l0.643,0.583l0.644,-1.376l0.643,3.53l0.644,6.151l0.643,-6.671l0.644,-35.421l0.643,-9.74l0.644,32.903l0.644,14.929l0.643,6.993l0.644,-9.114l0.643,-2.928l0.644,-0.967l0.643,0.613l0.644,-0.38l0.643,0.496l0.644,-0.803l0.643,0.542l0.644,-0.144l0.643,0.081l0.644,-0.557l0.643,-0.018l0.644,-0.199l0.643,0.155l0.644,-0.815l0.644,-0.09l0.643,-0.802l0.644,-0.109l0.643,-1.072l2.574,-2.054l0.644,1.396l0.643,0.101l0.644,1.186l0.643,0.447l0.644,1.358l0.643,0.591l1.287,0.617l1.288,-0.324l0.643,0.477l0.644,-0.678l0.643,0.196l0.644,0.019l0.643,0.336l0.644,-0.359l0.643,0.098l1.287,-0.276l0.644,0.071l1.287,-0.344l0.643,0.141l0.644,-0.019l0.643,0.314l0.644,-0.339l0.644,0.291l0.643,-0.082l0.644,0.403l0.643,0.168l0.644,-0.285l0.643,-0.013l0.644,0.104l0.643,-0.138l0.644,0.527l0.643,-0.1l0.644,0.175l0.643,-0.432l0.644,0.44l0.643,-0.214l0.644,0.418l0.643,-0.398l4.505,0.186l0.644,-0.309l0.643,0.551l0.644,-0.431l0.643,0.031l0.644,-0.283l0.643,0.173l1.287,0.039l0.644,-0.59l0.643,0.769l1.288,-1.587l0.643,-0.362l0.644,0.584l0.643,-0.133l0.644,-0.554l0.643,0.652l0.644,1.015l1.287,0.739l1.287,-0.294l0.643,0.046l0.644,-0.168l0.643,0.224l0.644,-0.527l0.643,0.71l0.644,5.881l0.643,0.484l0.644,-24.585l0.644,-29.899l0.643,21.653l0.644,27.091l0.643,10.889l0.644,-7.458l0.643,-5.587l0.644,0.511l0.643,-0.343l0.644,-0.09l0.643,-0.298l0.644,0.377l0.643,-0.236l0.644,-0.078l0.643,-0.403l2.575,0.015l0.643,-0.965l0.644,-0.361l0.643,-0.224l0.644,-0.819l0.643,-0.432l0.644,-1.17l0.643,-0.643l1.287,-0.867l0.644,0.539l0.643,0.124l0.644,0.844l0.643,1.53l0.644,0.828l0.643,1.143l0.644,0.161l0.644,0.044l1.287,0.434l1.287,0.241l0.643,-0.277l0.644,-0.488l0.643,0.349l0.644,-0.198l0.643,0.223l0.644,-0.789l0.643,0.376l0.644,-0.156l0.643,0.192l0.644,-0.574l0.643,0.419l1.288,-0.405l0.643,0.072l0.644,0.478l1.93,-0.102l0.644,0.428l0.643,-0.127l0.644,0.246l1.287,0.247l0.643,-0.364l0.644,0.084l0.643,0.349l0.644,-0.305l0.643,0.148l0.644,0.022l0.644,-0.149l1.93,0.339l0.644,-0.535l0.643,0.505l0.644,-0.297l1.287,0.356l1.287,-0.545l0.643,0.602l0.644,-0.455l0.643,0.061l0.644,-0.081l0.643,0.206l0.644,-0.288l0.644,-0.144l0.643,0.415l0.644,-0.732l0.643,-1.41l0.644,0.732l0.643,-0.593l0.644,0.817l0.643,-0.948l1.287,1.406l0.644,1.366l0.643,-0.873l0.644,0.607l0.643,-0.587l0.644,0.658l0.643,-0.808l0.644,0.163l0.644,-0.709l0.643,2.016l0.644,6.141l0.643,-2.857l0.644,-30.711l0.643,-20.747l1.287,49.918l0.644,8.301l0.643,-9.74l0.644,-3.16l0.643,-0.183l0.644,0.552l0.643,-0.583l0.644,0.462l0.643,-0.603l0.644,0.316l0.644,-0.336l0.643,0.405l0.644,-0.441l0.643,0.077l0.644,-0.524l0.643,0.067l1.287,-0.863l0.644,-0.778l0.643,-0.35l0.644,-0.972l1.287,-1.44l0.643,-0.268l0.644,-0.424l0.643,-0.165l0.644,0.799l0.643,1.56l0.644,0.901l0.644,1.168l1.287,1.148l0.643,-0.225l0.644,0.511l0.643,-0.494l0.644,0.54l0.643,0.075l1.287,-0.509l0.644,-0.155l0.643,0.303l0.644,-0.123l0.643,-0.283l1.287,0.211l0.644,-0.341l0.644,-0.058l1.287,0.502l0.643,-0.343l0.644,0.185l0.643,-0.054l1.287,0.128l0.644,0.29l1.287,-0.002l0.643,0.313l1.287,-0.154l0.644,0.219l1.287,-0.178l1.287,0.047l0.644,-0.553l0.643,0.822l1.287,-0.076l0.644,-0.156l2.574,0.074l0.643,0.22l0.644,-0.368l0.643,0.118l0.644,-0.037l0.643,-0.245l0.644,0.248l0.644,0.011l0.643,-1.049l0.644,-0.651l0.643,0.295l0.644,0.504l0.643,-0.426l0.644,-0.061l0.643,0.573l0.644,1.305l2.574,0.231l1.93,-0.633l0.644,1.221l0.644,7.152l0.643,-1.538l1.287,-53.192l0.644,28.687l0.643,20.658l0.644,8.419l0.643,-5l0.644,-6.471l1.287,-0.134l0.643,0.084l0.644,-0.251l0.643,0.605l0.644,-0.212l0.643,-0.456l1.288,-0.041l0.643,-0.213l1.287,-0.192l0.644,-0.345l1.287,-0.337l0.643,-0.79l0.644,-0.297l0.643,-0.761l1.287,-0.762l0.644,-0.402l0.643,0.02l0.644,0.361l0.643,0.718l1.931,2.862l0.644,-0.164l0.643,0.743l0.644,-0.183l1.287,0.3l0.643,-0.102l0.644,-0.393l0.643,0.717l0.644,-0.569l1.93,-0.073l0.644,-0.237l0.643,0.427l0.644,-0.517l0.644,0.259l1.287,0.203l0.643,-0.436l0.644,0.35l0.643,-0.168l0.644,0.112l1.287,0.038l0.643,0.376l0.644,-0.424l0.643,0.197l0.644,0.438l1.287,-0.414l0.643,-0.181l0.644,0.107l0.644,0.243l1.287,-0.228l0.643,0.164l0.644,-0.44l0.643,0.521l0.644,-0.32l0.643,0.209l0.644,0.046l0.643,-0.596l0.644,-0.843l1.287,0.219l0.643,-0.337l0.644,-0.159l1.93,2.63l0.644,-0.673l0.644,0.319l0.643,-0.642l0.644,0.751l0.643,-1.171l0.644,0.812l0.643,-0.46l0.644,6.425l0.643,2.118l0.644,-21.342l0.643,-33.255l0.644,21.325l0.643,25.03l0.644,9.254l0.643,-0.23l0.644,-9.085l1.287,-0.849l0.644,0.067l0.643,-0.235l0.644,0.104l0.643,-0.304l0.644,-0.01l0.643,-0.183l0.644,0.144l0.643,-0.569l0.644,0.297l0.643,-0.339l0.644,-0.137l0.643,-0.742l0.644,0.421l0.643,-1.201l0.644,-0.393l0.643,-0.748l0.644,-0.245l0.644,-0.604l0.643,-0.07l0.644,0.187l1.287,0.92l1.93,2.997l0.644,-0.196l0.643,0.5l1.287,0.37l0.644,-0.109l0.643,0.07l0.644,-0.188l1.931,-0.3l0.643,0.292l0.644,-0.397l0.643,0.12l0.644,-0.172l0.643,-0.048l1.931,0.41l0.643,-0.28l0.644,0.061l0.643,-0.076l1.287,0.271l0.644,0.279l0.643,-0.149l0.644,-0.005l0.644,0.444l0.643,-0.417l2.574,0.157l0.644,-0.148l0.643,0.184l0.644,0.032l1.287,-0.449l0.643,0.416l0.644,-0.123l0.643,0.052l0.644,-0.291l0.643,0.206l0.644,0.066l0.644,-1.091l0.643,-0.627l0.644,-0.019l0.643,0.584l0.644,-0.186l0.643,-0.362l0.644,0.986l0.643,0.609l0.644,0.839l0.643,-0.089l0.644,-0.317l0.643,0.259l0.644,-0.062l0.643,-0.547l0.644,0.089l0.643,0.649l0.644,6.528l0.644,-0.642l1.287,-54.862l1.287,51.024l0.643,8.974l0.644,-7.683l0.643,-4.672l1.287,-0.182l0.644,0.242l0.643,-0.482l0.644,0.406l0.643,-0.247l0.644,0.232l0.643,-0.412l0.644,-0.065l0.644,-0.26l0.643,0.443l1.287,-0.635l2.574,-2.267l1.287,-1.485l1.931,-0.365l1.287,1.288l1.287,2.159l0.644,0.327l1.287,1.107l0.643,-0.193l0.644,0.266l0.643,-0.284l0.644,0.321l0.643,-0.553l0.644,0.318l0.643,0.07l0.644,-0.228l0.643,0.081l0.644,-0.2l0.643,-0.369l0.644,0.386l0.643,-0.29l0.644,0.37l0.643,-0.127l0.644,0.107l1.287,-0.122l1.287,0.305l0.644,0.116l0.643,-0.089l0.644,0.415l0.643,0.098l0.644,-0.421l0.643,0.605l0.644,-0.358l0.643,0.378l0.644,-0.249l0.643,0.184l0.644,0.039l0.643,-0.256l0.644,0.153l0.644,-0.003l0.643,0.128l1.287,-0.435l0.644,0.29l0.643,-0.361l0.644,-0.605l0.643,-0.855l0.644,0.216l0.643,0.083l0.644,0.527l0.643,-0.749l0.644,0.624l0.643,1.085l0.644,0.665l0.643,-0.262l0.644,0.379l0.644,-0.702l0.643,0.697l0.644,-1.081l0.643,1.142l0.644,-1.32l0.643,5.306l0.644,3.02l0.643,-15.55l0.644,-34.993l0.643,7.712l0.644,30.276l0.643,15.047l0.644,-3.328l0.643,-8.206l0.644,0.626l0.643,-0.863l0.644,0.92l0.644,-1.072l0.643,0.628l0.644,-0.627l0.643,0.79l0.644,-0.321l0.643,-0.007l0.644,-0.421l0.643,-0.005l0.644,-0.298l0.643,0.254l0.644,-1.06l0.643,-0.155l0.644,-0.72l0.643,-0.03l0.644,-1.713l0.643,0.172l0.644,-1.271l0.644,0.356l0.643,-0.601l0.644,0.871l0.643,0.594l0.644,1.405l0.643,0.802l1.287,1.139l0.644,0.328l0.643,-0.135l0.644,0.263l0.643,-0.139l0.644,0.157l1.287,-0.298l0.643,0.173l0.644,-0.014l0.644,-0.771l0.643,0.47l0.644,0.045l0.643,-0.083l0.644,-0.305l0.643,0.184l0.644,-0.245l0.643,0.375l0.644,-0.488l0.643,0.282l1.931,0.046l0.643,0.503l0.644,-0.229l1.287,0.106l0.644,0.351l0.643,-0.377l0.644,0.088l0.643,-0.103l0.644,0.335l1.287,0.128l0.643,-0.188l1.931,0.091l0.643,-0.672l0.644,0.268l0.643,-0.046l1.287,-1.505l0.644,-0.223l0.644,0.218l0.643,0.518l0.644,-0.712l1.93,2.855l0.644,-0.469l0.643,0.335l0.644,-1.067l0.643,0.726l0.644,-0.726l0.643,0.876l0.644,-1.225l0.643,5.83l0.644,3.062l0.643,-15.932l0.644,-35.019l0.643,9.012l0.644,29.008l0.644,15.058l0.643,-2.88l0.644,-8.575l0.643,0.669l0.644,-0.337l0.643,0.229l0.644,-0.743l0.643,0.636l0.644,-0.279l0.643,0.074l0.644,-0.459l0.643,0.353l1.287,-0.411l1.287,-0.41l0.644,-0.367l0.644,-0.228l0.643,-0.918l0.644,-0.293l1.93,-2.229l1.287,0.353l0.644,0.36l0.643,0.494l1.287,2.073l1.287,1.146l0.644,0.214l1.287,-0.001l0.644,0.354l0.643,-0.325l1.287,0.039l0.644,-0.172l0.643,0.006l0.644,-0.135l1.287,-0.544l0.643,0.156l0.644,0.008l1.287,0.19l1.287,0.153l1.287,-0.276l0.644,0.419l0.643,-0.067l0.644,0.258l0.643,-0.217l0.644,0.417l0.643,-0.235l0.644,0.476l0.643,-0.722l0.644,0.614l1.287,-0.138l0.643,0.306l0.644,-0.21l1.287,-0.006l0.643,-0.192l0.644,0.588l0.644,-0.311l0.643,-1.056l0.644,0.004l0.643,-0.364l1.287,0.204l0.644,-0.235l1.287,2.155l0.643,0.072l0.644,-0.288l0.643,-0.087l0.644,0.231l0.643,-0.196l0.644,-0.001l0.643,-0.268l0.644,0.524l0.644,6.96l0.643,-1.014l1.287,-52.413l0.644,27.138l0.643,21.348l0.644,8.543l0.643,-4.042l0.644,-7.289l0.643,-0.012l0.644,-0.491l0.643,0.351l0.644,-0.568l0.643,0.696l0.644,-0.411l0.643,-0.044l0.644,-0.203l0.644,0.111l0.643,-0.432l0.644,0.127l0.643,-0.299l0.644,0.058l1.93,-1.36l0.644,-0.208l0.643,-0.601l1.287,-0.612l0.644,0.056l0.643,-0.077l0.644,0.3l0.643,0.574l0.644,1.092l0.644,0.258l0.643,0.801l0.644,-0.244l0.643,0.568l0.644,0.08l0.643,0.264l0.644,-0.264l0.643,0.397l0.644,-0.278l1.93,-0.194l0.644,-0.435l0.643,0.504l1.287,-0.917l0.644,-0.019l0.644,0.155l1.93,-0.038l0.644,0.404l0.643,-0.418l0.644,0.428l0.643,0.059l0.644,-0.244l0.643,-0.026l1.931,0.333l0.643,-0.296l0.644,0.587l0.643,-0.504l0.644,0.358l0.643,-0.394l1.288,-0.384l0.643,0.442l0.644,-0.105l0.643,-1.028l0.644,-0.627l0.643,0.505l0.644,0.189l0.643,0.067l0.644,-0.849l0.643,0.956l0.644,0.433l0.643,0.89l0.644,-0.825l0.643,0.655l0.644,-0.494l0.643,0.418l0.644,-0.584l0.644,0.634l0.643,-1.491l0.644,6.502l0.643,2.864l0.644,-18.636l0.643,-35.158l0.644,14.792l0.643,28.766l0.644,11.084l0.643,-0.396l0.644,-9.442l0.643,0.003l0.644,-0.508l0.643,0.497l0.644,-0.588l0.643,0.218l0.644,-0.74l0.644,0.747l0.643,-0.988l0.644,0.628l0.643,-0.564l0.644,0.044l0.643,-0.336l0.644,-0.111l0.643,0.069l1.287,-1.393l0.644,-0.294l0.643,-0.742l1.287,-0.949l0.644,-0.025l0.643,-0.235l0.644,1.009l0.644,0.218l0.643,1.12l0.644,0.683l0.643,0.949l1.931,0.237l0.643,0.22l0.644,0.063l1.287,-0.26l0.643,0.283l0.644,-0.058l0.643,-0.508l0.644,-0.238l0.643,0.323l0.644,-0.246l0.644,0.132l0.643,-0.31l0.644,0.027l0.643,-0.149l1.287,0.37l1.287,-0.221l0.644,0.098l1.287,0.072l0.643,0.094l0.644,0.421l0.643,-0.012l0.644,-0.202l0.643,0.305l0.644,-0.271l0.644,0.307l0.643,-0.027l0.644,-0.188l1.93,0.243l0.644,-0.276l0.643,0.055l1.287,-0.639l0.644,0.892l0.643,-0.35l0.644,-1.632l0.643,-0.425l0.644,0.627l0.643,-0.017l0.644,0.282l0.644,-0.208l0.643,0.549l1.287,1.554l0.644,-0.31l0.643,0.336l0.644,-0.244l0.643,-0.039l0.644,-0.354l0.643,0.452l0.644,-0.139l0.643,6.042l0.644,0.776l0.643,-22.961l0.644,-30.444l0.643,18.806l0.644,28.894l0.644,10.356l0.643,-7.076l0.644,-5.521l0.643,0.238l0.644,-0.125l0.643,0.35l0.644,-0.427l0.643,-0.017l0.644,-0.13l0.643,0.41l0.644,-0.249l0.643,0.024l0.644,-0.378l0.643,-0.019l0.644,-0.373l0.643,0.053l0.644,-0.935l0.644,-0.117l0.643,-0.859l2.574,-2.347l0.644,-0.552l0.643,0.884l0.644,0.143l0.643,0.925l0.644,1.123l1.287,1.378l0.643,0.546l0.644,-0.027l1.287,0.548l0.643,-0.258l0.644,0.037l0.644,0.267l1.93,-0.307l0.644,-0.447l1.93,0.042l0.644,0.077l0.643,-0.229l0.644,0.205l0.643,-0.135l1.931,0.225l0.643,-0.066l3.218,0.547l0.644,0.048l1.287,0.508l0.643,-0.35l0.644,0.363l0.643,-0.401l0.644,-0.018l1.287,0.32l1.93,0.138l2.575,-0.168l0.643,-0.63l0.644,-1.474l0.643,0.502l0.644,0.095l0.643,0.69l0.644,-1.028l0.643,0.945l0.644,0.691l0.643,1.693l0.644,-0.979l0.643,0.341l0.644,-0.197l0.643,0.229l0.644,-0.521l0.644,0.51l0.643,-1.119l0.644,2.92l0.643,5.569l0.644,-4.254l0.643,-33.01l0.644,-15.498l0.643,29.1l0.644,21.471l0.643,5.384l0.644,-10.323l0.643,-1.604l0.644,-0.262l0.643,0.504l0.644,-0.397l0.643,0.303l0.644,-0.478l0.644,0.272l0.643,-0.103l0.644,0.136l0.643,-0.554l0.644,0.309l0.643,-0.684l0.644,0.323l2.574,-2.255l0.643,-0.789l0.644,-0.502l0.643,-0.729l0.644,-0.102l0.643,-0.361l0.644,0.719l0.644,0.216l0.643,1.239l0.644,0.777l0.643,1.141l0.644,0.362l0.643,0.653l0.644,-0.314l1.287,0.307l0.643,0.389l0.644,-0.647l0.643,0.088l0.644,-0.149l0.643,0.216l0.644,-0.302l0.643,0.468l0.644,-0.85l0.644,0.204l0.643,-0.362l0.644,0.65l1.287,-0.531l0.643,0.221l1.287,0.066l0.644,0.231l0.643,-0.071l0.644,-0.197l0.643,0.515l0.644,0.147l0.643,-0.22l0.644,0.191l0.643,-0.268l0.644,0.244l0.644,-0.027l0.643,0.351l0.644,-0.575l0.643,0.365l1.287,0.157l0.644,-0.254l0.643,0.18l0.644,-0.187l0.643,0.216l0.644,-0.019" style="fill:none;fill-rule:nonzero;stroke:#1e6da6;stroke-width:1.5px;"/><path d="M33.563,202.335l4.505,-2.492l7.078,-4.893l6.436,-5.189l5.791,-5.003l5.149,-4.038l1.93,-1.182l1.287,-0.658l4.505,-1.38l1.287,-0.259l4.505,-0.849l1.93,-0.511l5.149,-1.611l1.93,-0.513l10.94,-2.346l9.653,-3.232l1.287,-0.284l3.218,-0.58l1.287,-0.146l4.505,-0.996l5.148,-1.223l1.93,-0.239l1.287,-0.051l1.287,0.075l1.288,0.129l3.217,0.564l1.931,0.433l1.93,0.319l4.505,0.837l5.792,0.368l1.287,-0.023l1.93,0.027l2.575,-0.009l1.93,-0.027l3.218,-0.087l1.93,-0.143l1.931,-0.099l1.287,-0.045l1.931,-0.098l5.791,-0.093l4.505,0.541l5.792,2.016l2.574,1.445l1.287,0.8l5.792,4.465l2.574,2.105l5.792,4.445l3.861,2.666l3.217,2.098l0.644,0.334l1.287,0.84l3.861,2.461l7.079,5.277l5.148,4.389l3.218,2.382l4.505,2.29l3.217,1.345l1.287,0.468l1.931,0.831l1.93,0.846l2.575,1.228l1.93,0.995l1.931,0.869l5.792,3.118l4.504,1.839l0.644,0.18l0.643,0.312l0.644,0.095l1.287,0.366l2.574,0.53l1.931,0.255l1.287,0.129l0.643,0.092l1.931,-0.008l6.435,-0.116l2.574,-0.326l1.287,-0.225l3.218,-0.642l1.93,-0.467l7.079,-2.594l1.287,-0.703l3.218,-2.208l3.218,-2.642l1.287,-1.059l10.296,-8.466l1.287,-0.888l3.861,-2.355l7.723,-3.958l1.93,-0.932l5.149,-2.951l1.93,-1.113l3.218,-1.453l5.148,-2.047l1.287,-0.587l6.435,-1.595l5.149,-0.695l1.287,-0.089l2.574,-0.334l1.93,-0.468l3.218,-1.187l3.218,-1.433l4.504,-1.916l10.297,-2.713l1.287,-0.201l1.287,-0.079l1.931,0.139l1.287,0.17l1.93,0.302l1.287,0.208l3.861,0.372l2.575,-0.061l2.574,-0.044l1.93,0.05l9.653,0.471l1.931,-0.086l3.217,0.127l3.218,0.52l2.574,0.842l2.574,0.776l5.792,2.051l2.574,0.875l3.218,0.886l1.93,0.414l4.505,1.584l6.435,3.344l7.079,3.878l1.287,0.766l3.218,1.959l3.861,2.621l5.148,4.319l18.663,17.545l2.574,2.204l5.792,4.265l1.93,0.99l9.653,3.594l1.931,0.644l3.861,1.29l3.861,1.148l2.574,0.884l3.861,1.147l1.287,0.35l1.287,0.29l1.931,0.277l1.287,0.155l1.287,0.03l3.218,-0.322l2.574,-0.644l3.217,-1.132l7.723,-3.603l2.574,-1.057l3.861,-2.058l1.931,-1.417l1.93,-1.683l8.366,-7.416l1.931,-1.574l14.157,-10l1.287,-0.948l3.218,-2.279l1.931,-1.236l8.366,-4.696l3.217,-1.48l3.218,-1.726l2.574,-1.475l1.287,-0.677l1.931,-0.866l0.643,-0.352l0.644,-0.181l1.287,-0.522l1.287,-0.425l1.287,-0.454l3.861,-1.667l1.287,-0.701l6.435,-3.048l1.931,-0.709l7.079,-2.808l1.93,-0.566l1.931,-0.451l1.287,-0.304l7.722,-1.95l2.574,-0.584l1.288,-0.326l0.643,0.019l1.287,-0.169l0.644,-0.012l0.643,-0.125l1.931,0.002l5.792,0.099l0.643,-0.05l1.931,0.165l1.93,0.148l1.287,0.216l1.287,0.167l1.287,0.264l1.931,0.294l2.574,0.429l3.218,0.13l9.009,-0.031l3.218,-0.145l5.792,0.157l3.861,0.213l3.217,0.138l2.575,0.197l4.504,0.712l1.287,0.312l1.287,0.272l2.574,0.683l3.218,1.215l1.931,0.85l1.93,0.896l4.505,1.99l7.722,4.134l3.861,1.751l0.644,0.175l6.435,3.107l5.792,3.875l1.931,1.312l1.93,1.235l3.861,2.58l1.931,1.236l1.287,0.857l2.574,1.849l3.861,3.093l14.802,13.222l2.574,2.446l4.504,3.962l1.287,0.93l1.931,1.114l3.218,1.012l5.791,1.053l1.931,0.268l2.574,0.373l0.644,-0.014l1.287,0.128l1.287,0.071l3.861,-0.193l1.93,-0.262l2.575,-0.571l1.93,-0.663l2.574,-0.754l5.149,-1.998l2.574,-1.218l1.93,-0.983l2.574,-1.562l1.287,-0.831l9.01,-5.689l1.93,-1.153l3.218,-2.232l1.287,-1.046l3.218,-3.024l2.574,-2.579l2.574,-2.645l2.574,-2.442l2.574,-2.347l2.574,-2.147l2.574,-1.926l16.089,-10.423l5.148,-2.408l3.218,-1.165l3.861,-1.638l1.93,-0.875l4.505,-1.335l3.861,-0.827l3.218,-0.649l3.217,-0.972l7.079,-2.019l9.01,-1.222l5.148,-0.086l7.722,0.215l1.287,-0.041l2.574,-0.118l3.218,-0.292l1.287,-0.119l2.574,-0.35l3.861,-0.55l2.575,0.056l4.504,0.768l5.149,0.828l1.287,0.05l8.365,-0.842l1.288,-0.117l1.93,-0.087l1.931,0.08l3.217,0.349l8.366,0.361l1.287,0.273l0.644,0.112" style="fill:none;fill-rule:nonzero;stroke:#7abf20;stroke-width:1.5px;"/><path d="M33.563,242.812l-0,6.996" style="fill:none;fill-rule:nonzero;stroke:#000;stroke-width:1.5px;stroke-linecap:butt;"/><path d="M355.029,242.812l-0,6.996" style="fill:none;fill-rule:nonzero;stroke:#000;stroke-width:1.5px;stroke-linecap:butt;"/><path d="M676.495,242.812l0,6.996" style="fill:none;fill-rule:nonzero;stroke:#000;stroke-width:1.5px;stroke-linecap:butt;"/><path d="M997.961,242.812l0,6.996" style="fill:none;fill-rule:nonzero;stroke:#000;stroke-width:1.5px;stroke-linecap:butt;"/><path d="M33.563,242.812l964.398,-0" style="fill:none;fill-rule:nonzero;stroke:#000;stroke-width:1.5px;stroke-linecap:square;stroke-linejoin:miter;"/><text x="482.7px" y="280.805px" style="font-family:'OpenSans', 'Open Sans', sans-serif;font-size:18px;">time (s)</text><text x="987.613px" y="267.42px" style="font-family:'OpenSans', 'Open Sans', sans-serif;font-size:18px;">15</text><text x="28.109px" y="267.42px" style="font-family:'OpenSans', 'Open Sans', sans-serif;font-size:18px;">0</text><text x="349.883px" y="267.42px" style="font-family:'OpenSans', 'Open Sans', sans-serif;font-size:18px;">5</text><text x="665.825px" y="267.42px" style="font-family:'OpenSans', 'Open Sans', sans-serif;font-size:18px;">10</text><path d="M31.313,226.936l2.25,6.75l2.25,-6.75l-4.5,-0Z" style="fill-rule:nonzero;"/><path d="M31.313,171.41l2.25,-6.75l2.25,6.75l-4.5,0Z" style="fill-rule:nonzero;"/><path d="M33.563,228.286l-0,-58.226" style="fill:none;fill-rule:nonzero;stroke:#000;stroke-width:1.5px;stroke-linecap:square;stroke-linejoin:miter;"/><g transform="matrix(6.12323e-17,-1,1,6.12323e-17,-708.625,168.832)"><text x="-44.254px" y="721.844px" style="font-family:'OpenSans', 'Open Sans', sans-serif;font-size:18px;">RIP</text></g><path d="M31.313,148.784l2.25,6.75l2.25,-6.75l-4.5,-0Z" style="fill-rule:nonzero;"/><path d="M31.313,93.254l2.25,-6.75l2.25,6.75l-4.5,-0Z" style="fill-rule:nonzero;"/><path d="M33.563,150.134l-0,-58.23" style="fill:none;fill-rule:nonzero;stroke:#000;stroke-width:1.5px;stroke-linecap:square;stroke-linejoin:miter;"/><g transform="matrix(6.12323e-17,-1,1,6.12323e-17,-627.086,87.2936)"><text x="-48.152px" y="640.305px" style="font-family:'OpenSans', 'Open Sans', sans-serif;font-size:18px;">PPG</text></g><path d="M31.313,70.627l2.25,6.75l2.25,-6.75l-4.5,0Z" style="fill-rule:nonzero;"/><path d="M31.313,15.097l2.25,-6.75l2.25,6.75l-4.5,0Z" style="fill-rule:nonzero;"/><path d="M33.563,71.977l-0,-58.23" style="fill:none;fill-rule:nonzero;stroke:#000;stroke-width:1.5px;stroke-linecap:square;stroke-linejoin:miter;"/><g transform="matrix(6.12323e-17,-1,1,6.12323e-17,-552.116,12.3239)"><text x="-47.818px" y="565.336px" style="font-family:'OpenSans', 'Open Sans', sans-serif;font-size:18px;">EC<tspan x="-26.812px " y="565.336px ">G</tspan></text></g><path d="M995.963,226.936l2.25,6.75l2.25,-6.75l-4.5,-0Z" style="fill-rule:nonzero;"/><path d="M995.963,171.41l2.25,-6.75l2.25,6.75l-4.5,0Z" style="fill-rule:nonzero;"/><path d="M998.213,228.286l-0,-58.226" style="fill:none;fill-rule:nonzero;stroke:#000;stroke-width:1.5px;stroke-linecap:square;stroke-linejoin:miter;"/><path d="M995.963,148.784l2.25,6.75l2.25,-6.75l-4.5,-0Z" style="fill-rule:nonzero;"/><path d="M995.963,93.254l2.25,-6.75l2.25,6.75l-4.5,-0Z" style="fill-rule:nonzero;"/><path d="M998.213,150.134l-0,-58.23" style="fill:none;fill-rule:nonzero;stroke:#000;stroke-width:1.5px;stroke-linecap:square;stroke-linejoin:miter;"/><path d="M995.963,70.627l2.25,6.75l2.25,-6.75l-4.5,0Z" style="fill-rule:nonzero;"/><path d="M995.963,15.097l2.25,-6.75l2.25,6.75l-4.5,0Z" style="fill-rule:nonzero;"/><path d="M998.213,71.977l-0,-58.23" style="fill:none;fill-rule:nonzero;stroke:#000;stroke-width:1.5px;stroke-linecap:square;stroke-linejoin:miter;"/></g></svg>